<?xml version="1.0" encoding="UTF-8"?>
<svg version="1.1" xmlns="http://www.w3.org/2000/svg" viewBox="190 180 120 100" width="120" height="100">
<path d="M0 0 C7.79869704 6.96814988 12.49792067 15.41428406 13.30078125 25.9453125 C13.31098997 29.31418919 13.2267222 32.63947323 13 36 C12.01 36.350625 11.02 36.70125 10 37.0625 C6.75470615 38.39828828 4.95490198 40.01257237 2.578125 42.56469727 C-2.82937629 47.37483476 -8.29597609 46.98457509 -15.25 46.90234375 C-16.50385498 46.91463516 -17.75770996 46.92692657 -19.04956055 46.93959045 C-22.35777144 46.96587904 -25.66414393 46.96244422 -28.97235107 46.94421387 C-32.35802097 46.93300338 -35.74334362 46.96140962 -39.12890625 46.98632812 C-45.75288025 47.02712264 -52.37598198 47.0286922 -59 47 C-58.40477663 48.44122613 -57.79842381 49.87785868 -57.1875 51.3125 C-56.85105469 52.11300781 -56.51460937 52.91351563 -56.16796875 53.73828125 C-55.01327466 55.97429421 -53.77862696 57.26214385 -52 59 C-52 59.66 -52 60.32 -52 61 C-51.34 61 -50.68 61 -50 61 C-50 61.66 -50 62.32 -50 63 C-49.154375 63.268125 -48.30875 63.53625 -47.4375 63.8125 C-44 65 -44 65 -40.86328125 66.546875 C-36.51892161 68.41710032 -32.42878409 68.49655899 -27.75 68.4375 C-26.91098145 68.42992676 -26.07196289 68.42235352 -25.20751953 68.41455078 C-8.44273256 67.97090083 3.44751445 57.98975549 14.59765625 46.26953125 C18.74315551 41.9529533 18.74315551 41.9529533 22 37 C22.99 37 23.98 37 25 37 C24.38188466 41.55315948 22.53234107 45.28459767 20.4375 49.3125 C20.10814453 49.95767578 19.77878906 50.60285156 19.43945312 51.26757812 C18.63175745 52.84785228 17.81662387 54.42432105 17 56 C16.34 56 15.68 56 15 56 C14.75121094 56.73476562 14.50242187 57.46953125 14.24609375 58.2265625 C9.52796726 68.72772178 -2.93104007 75.36348439 -12.9375 79.9375 C-22.87854804 83.52864415 -35.91859708 84.07366029 -45.875 80.1875 C-47.26805239 79.49344376 -48.6461537 78.76772991 -50 78 C-51.20690568 77.41371858 -52.41506028 76.82999404 -53.625 76.25 C-54.40875 75.8375 -55.1925 75.425 -56 75 C-56 74.34 -56 73.68 -56 73 C-56.57878906 72.75121094 -57.15757812 72.50242187 -57.75390625 72.24609375 C-65.61987111 67.88219325 -70.10925129 59.18838691 -73 51 C-73.91305169 47.3707631 -74.13510155 43.987574 -74.125 40.25 C-74.12757813 39.28578125 -74.13015625 38.3215625 -74.1328125 37.328125 C-74 35 -74 35 -73 34 C-70.73008113 33.90560022 -68.45718033 33.88257774 -66.18530273 33.88647461 C-65.11706772 33.88625557 -65.11706772 33.88625557 -64.0272522 33.8860321 C-61.66266888 33.8867313 -59.29816339 33.89452394 -56.93359375 33.90234375 C-55.29834537 33.90420791 -53.66309643 33.90563182 -52.02784729 33.90663147 C-47.71565215 33.91045682 -43.40349048 33.92028725 -39.09130859 33.93133545 C-34.69434054 33.9415492 -30.29736711 33.94612901 -25.90039062 33.95117188 C-17.26691169 33.96190951 -8.63346 33.97898613 0 34 C-0.1481145 32.39442894 -0.29975075 30.78918249 -0.45288086 29.18408203 C-0.53694687 28.29012726 -0.62101288 27.39617249 -0.70762634 26.47512817 C-1.02477967 23.79022439 -1.62254908 21.40878073 -2.5625 18.875 C-2.83191406 18.12992188 -3.10132813 17.38484375 -3.37890625 16.6171875 C-3.58386719 16.08351562 -3.78882813 15.54984375 -4 15 C-4.66 15 -5.32 15 -6 15 C-6.70125 14.0925 -7.4025 13.185 -8.125 12.25 C-12.48085384 6.89381926 -17.67381329 4.94427614 -24.4375 4.1875 C-37.88653323 3.46701608 -48.29260994 7.48905188 -59.0390625 15.64453125 C-61 17 -61 17 -63 17 C-63 17.66 -63 18.32 -63 19 C-63.66 19 -64.32 19 -65 19 C-65 19.66 -65 20.32 -65 21 C-65.66 21 -66.32 21 -67 21 C-67 21.66 -67 22.32 -67 23 C-67.66 23 -68.32 23 -69 23 C-69.26039063 23.56203125 -69.52078125 24.1240625 -69.7890625 24.703125 C-71.1269468 27.24078941 -72.65629452 29.45338918 -74.375 31.75 C-74.96023437 32.54921875 -75.54546875 33.3484375 -76.1484375 34.171875 C-78 36 -78 36 -82 36 C-77.15969843 18.63185906 -64.10381285 4.29749468 -48.6875 -4.6796875 C-44.29119326 -6.83950098 -39.77061375 -7.97610039 -35 -9 C-33.989375 -9.2475 -32.97875 -9.495 -31.9375 -9.75 C-20.25936705 -10.74388366 -9.03688342 -7.42198909 0 0 Z " fill="#464F56" transform="translate(278,194)"/>
<path d="M0 0 C0.99 0 1.98 0 3 0 C2.38188466 4.55315948 0.53234107 8.28459767 -1.5625 12.3125 C-1.89185547 12.95767578 -2.22121094 13.60285156 -2.56054688 14.26757812 C-3.36824255 15.84785228 -4.18337613 17.42432105 -5 19 C-5.66 19 -6.32 19 -7 19 C-7.24878906 19.73476562 -7.49757813 20.46953125 -7.75390625 21.2265625 C-12.47203274 31.72772178 -24.93104007 38.36348439 -34.9375 42.9375 C-44.87854804 46.52864415 -57.91859708 47.07366029 -67.875 43.1875 C-69.26805239 42.49344376 -70.6461537 41.76772991 -72 41 C-73.20690568 40.41371858 -74.41506028 39.82999404 -75.625 39.25 C-76.800625 38.63125 -76.800625 38.63125 -78 38 C-78 37.34 -78 36.68 -78 36 C-78.57878906 35.75121094 -79.15757812 35.50242187 -79.75390625 35.24609375 C-87.46337926 30.9690122 -92.4225269 22.1785204 -95 14 C-95.125 11.171875 -95.125 11.171875 -95 9 C-93.86567972 11.24188772 -92.76873734 13.49387116 -91.703125 15.76953125 C-88.73585616 21.98324744 -85.75831721 27.01509626 -81 32 C-80.01 31.67 -79.02 31.34 -78 31 C-78 29.35 -78 27.7 -78 26 C-79.32 25.67 -80.64 25.34 -82 25 C-82.33 25.66 -82.66 26.32 -83 27 C-84.10699272 23.01482622 -83.79843267 21.59686533 -82 18 C-81.9222654 15.66796188 -81.91032272 13.33160941 -82 11 C-78.41605149 14.58394851 -76.18504885 19.4478149 -74 24 C-73.34 24 -72.68 24 -72 24 C-72 24.66 -72 25.32 -72 26 C-71.154375 26.268125 -70.30875 26.53625 -69.4375 26.8125 C-66 28 -66 28 -62.86328125 29.546875 C-58.51892161 31.41710032 -54.42878409 31.49655899 -49.75 31.4375 C-48.49147217 31.42614014 -48.49147217 31.42614014 -47.20751953 31.41455078 C-30.44273256 30.97090083 -18.55248555 20.98975549 -7.40234375 9.26953125 C-3.25684449 4.9529533 -3.25684449 4.9529533 0 0 Z " fill="#323C43" transform="translate(300,231)"/>
<path d="M0 0 C8.16981627 8.09950804 8.16981627 8.09950804 10 13 C9.505 14.485 9.505 14.485 9 16 C6.36108519 13.7129405 5.09915247 12.32389807 4.0625 8.9375 C2.76149053 5.34059146 1.38332948 4.60262975 -2 3 C-2.99 3.66 -3.98 4.32 -5 5 C-4.65555119 7.47266765 -4.65555119 7.47266765 -4 10 C-3.34 10.33 -2.68 10.66 -2 11 C-1.59038404 13.32115711 -1.26871451 15.65834501 -1 18 C-0.6725678 20.00097458 -0.34123581 22.00133314 0 24 C-2.6855594 21.3144406 -3.06049974 18.62378672 -4 15 C-4.66 15 -5.32 15 -6 15 C-6.70125 14.0925 -7.4025 13.185 -8.125 12.25 C-12.48085384 6.89381926 -17.67381329 4.94427614 -24.4375 4.1875 C-37.88653323 3.46701608 -48.29260994 7.48905188 -59.0390625 15.64453125 C-61 17 -61 17 -63 17 C-63 17.66 -63 18.32 -63 19 C-63.66 19 -64.32 19 -65 19 C-65 19.66 -65 20.32 -65 21 C-65.66 21 -66.32 21 -67 21 C-67 21.66 -67 22.32 -67 23 C-67.66 23 -68.32 23 -69 23 C-69.26039063 23.56203125 -69.52078125 24.1240625 -69.7890625 24.703125 C-71.1269468 27.24078941 -72.65629452 29.45338918 -74.375 31.75 C-74.96023437 32.54921875 -75.54546875 33.3484375 -76.1484375 34.171875 C-78 36 -78 36 -82 36 C-77.15969843 18.63185906 -64.10381285 4.29749468 -48.6875 -4.6796875 C-44.29119326 -6.83950098 -39.77061375 -7.97610039 -35 -9 C-33.989375 -9.2475 -32.97875 -9.495 -31.9375 -9.75 C-20.3157906 -10.73908165 -8.96155509 -7.46528108 0 0 Z M-4 5 C-3.01 5.495 -3.01 5.495 -2 6 C-2.99 6.495 -2.99 6.495 -4 7 C-4 6.34 -4 5.68 -4 5 Z " fill="#2F3840" transform="translate(278,194)"/>
<path d="M0 0 C8.16981627 8.09950804 8.16981627 8.09950804 10 13 C9.505 14.485 9.505 14.485 9 16 C6.36108519 13.7129405 5.09915247 12.32389807 4.0625 8.9375 C2.76149053 5.34059146 1.38332948 4.60262975 -2 3 C-2.99 3.66 -3.98 4.32 -5 5 C-4.65555119 7.47266765 -4.65555119 7.47266765 -4 10 C-3.34 10.33 -2.68 10.66 -2 11 C-1.59038404 13.32115711 -1.26871451 15.65834501 -1 18 C-0.6725678 20.00097458 -0.34123581 22.00133314 0 24 C-2.6855594 21.3144406 -3.06049974 18.62378672 -4 15 C-4.66 15 -5.32 15 -6 15 C-6.70125 14.0925 -7.4025 13.185 -8.125 12.25 C-12.48085384 6.89381926 -17.67381329 4.94427614 -24.4375 4.1875 C-34.5852044 3.64387298 -41.73438301 5.84600132 -51 10 C-52.66335538 10.67488599 -54.3289536 11.34438873 -56 12 C-48.04423806 3.24307233 -36.18557476 1.95835487 -25 1 C-24.34 1 -23.68 1 -23 1 C-22.67 -1.31 -22.34 -3.62 -22 -6 C-34.6262948 -6.28940312 -34.6262948 -6.28940312 -47 -4 C-46 -6 -46 -6 -43.70703125 -6.81640625 C-40.80883459 -7.5634448 -37.90974438 -8.29920241 -35 -9 C-33.989375 -9.2475 -32.97875 -9.495 -31.9375 -9.75 C-20.3157906 -10.73908165 -8.96155509 -7.46528108 0 0 Z M-4 5 C-3.01 5.495 -3.01 5.495 -2 6 C-2.99 6.495 -2.99 6.495 -4 7 C-4 6.34 -4 5.68 -4 5 Z " fill="#636B70" transform="translate(278,194)"/>
<path d="M0 0 C1.13432028 2.24188772 2.23126266 4.49387116 3.296875 6.76953125 C6.26414384 12.98324744 9.24168279 18.01509626 14 23 C14.99 22.67 15.98 22.34 17 22 C17 20.35 17 18.7 17 17 C15.68 16.67 14.36 16.34 13 16 C12.67 16.66 12.34 17.32 12 18 C10.89300728 14.01482622 11.20156733 12.59686533 13 9 C13.0777346 6.66796188 13.08967728 4.33160941 13 2 C16.58394851 5.58394851 18.81495115 10.4478149 21 15 C21.66 15 22.32 15 23 15 C23 15.66 23 16.32 23 17 C23.845625 17.268125 24.69125 17.53625 25.5625 17.8125 C29 19 29 19 32.1171875 20.55859375 C36.5676415 22.48055452 40.78228135 22.37016261 45.5625 22.25 C46.38685547 22.24484375 47.21121094 22.2396875 48.06054688 22.234375 C52.47197738 22.17795383 56.65953034 21.87231481 61 21 C56.71092454 25.28907546 50.37525049 25.13997727 44.625 25.1875 C39.67774335 25.11838815 34.82960423 24.7711914 29.92578125 24.12109375 C27.9157021 23.83278933 27.9157021 23.83278933 26 25 C25.27840576 26.64363134 24.60648579 28.31050386 24 30 C24.99 30 25.98 30 27 30 C27 30.66 27 31.32 27 32 C37.03720929 35.34573643 48.65675425 34.72387429 59 33 C54.41532893 37.58467107 46.71521911 36.29904343 40.64794922 36.32348633 C34.02087943 36.23883179 28.82382125 35.30253278 23 32 C21.79309432 31.41371858 20.58493972 30.82999404 19.375 30.25 C18.59125 29.8375 17.8075 29.425 17 29 C17 28.34 17 27.68 17 27 C16.42121094 26.75121094 15.84242188 26.50242187 15.24609375 26.24609375 C7.53662074 21.9690122 2.5774731 13.1785204 0 5 C-0.125 2.171875 -0.125 2.171875 0 0 Z " fill="#8F959A" transform="translate(205,240)"/>
<path d="M0 0 C3.33329739 1.17115854 5.86405627 2.11647596 8 5 C8.144375 5.804375 8.28875 6.60875 8.4375 7.4375 C9.14870162 10.67741851 10.65641791 11.72965485 13 14 C14.43147745 17.77225819 14.11132514 21.77638506 14.0625 25.75 C14.05798828 26.44738281 14.05347656 27.14476562 14.04882812 27.86328125 C14.0371002 29.57555803 14.01916653 31.28779033 14 33 C7.25 35.125 7.25 35.125 5 34 C4.47265625 31.55859375 4.47265625 31.55859375 4.0625 28.4375 C3.4936651 24.57492754 2.82928472 21.16141648 1.3125 17.5625 C-0.00035105 13.99904715 -0.21201859 12.52587228 1 9 C0.01 8.67 -0.98 8.34 -2 8 C-2.33 6.02 -2.66 4.04 -3 2 C-2.01 2 -1.02 2 0 2 C0 1.34 0 0.68 0 0 Z M-1 3 C-0.67 3.66 -0.34 4.32 0 5 C0.33 4.34 0.66 3.68 1 3 C0.34 3 -0.32 3 -1 3 Z " fill="#28333B" transform="translate(275,196)"/>
<path d="M0 0 C0.99 0 1.98 0 3 0 C2.38188466 4.55315948 0.53234107 8.28459767 -1.5625 12.3125 C-1.89185547 12.95767578 -2.22121094 13.60285156 -2.56054688 14.26757812 C-3.36824255 15.84785228 -4.18337613 17.42432105 -5 19 C-5.66 19 -6.32 19 -7 19 C-7.23976563 19.72960937 -7.47953125 20.45921875 -7.7265625 21.2109375 C-9.17973363 24.39364972 -10.86685224 26.20017941 -13.375 28.625 C-14.53128906 29.75808594 -14.53128906 29.75808594 -15.7109375 30.9140625 C-17.731812 32.75561025 -19.77989512 34.40841796 -22 36 C-22.66 35.67 -23.32 35.34 -24 35 C-23.34 34.34 -22.68 33.68 -22 33 C-21.40583568 29.25676478 -21 25.78305096 -21 22 C-19.23050128 20.22750721 -17.46557861 18.61688849 -15.5625 17 C-10.30698706 12.40152372 -6.04253515 7.61529354 -1.83984375 2.01953125 C-1.23269531 1.35308594 -0.62554687 0.68664062 0 0 Z " fill="#A4A8AC" transform="translate(300,231)"/>
<path d="M0 0 C1 3 1 3 0.1875 5.625 C-1 8 -1 8 -3 9 C-5.30955442 9.29489886 -7.62281143 9.56105667 -9.9375 9.8125 C-16.70415597 10.61492195 -22.71327491 12.30755641 -29 15 C-28.67 13.02 -28.34 11.04 -28 9 C-28.99 8.67 -29.98 8.34 -31 8 C-28 6 -28 6 -25 6 C-25 5.01 -25 4.02 -25 3 C-16.64126728 -0.58231402 -8.92014943 -0.29551415 0 0 Z " fill="#29333B" transform="translate(256,187)"/>
<path d="M0 0 C3.0103245 3.0103245 2.97819673 5.22903621 3.09765625 9.453125 C3.08605469 10.70609375 3.07445312 11.9590625 3.0625 13.25 C3.05347656 14.51328125 3.04445313 15.7765625 3.03515625 17.078125 C3.02355469 18.04234375 3.01195312 19.0065625 3 20 C2.01 20.350625 1.02 20.70125 0 21.0625 C-3.24618739 22.39861613 -5.04804402 24.01471426 -7.42626953 26.56689453 C-12.82129119 31.36587048 -18.24253407 30.96779519 -25.1796875 30.8671875 C-26.42879913 30.87710724 -27.67791077 30.88702698 -28.96487427 30.89724731 C-32.26248695 30.91805871 -35.55823618 30.90966732 -38.85577393 30.88592529 C-43.52029414 30.86068728 -48.18491325 30.89477313 -52.84939575 30.91702271 C-55.3289352 30.92535726 -57.80852522 30.92452745 -60.28805542 30.91378784 C-61.40326569 30.91113922 -62.51847595 30.9084906 -63.66748047 30.90576172 C-64.65150848 30.90019257 -65.6355365 30.89462341 -66.64938354 30.8888855 C-69.02146183 30.84219673 -69.02146183 30.84219673 -71 32 C-71 31.01 -71 30.02 -71 29 C-70.2955777 29.00745743 -69.5911554 29.01491486 -68.86538696 29.02259827 C-62.18698347 29.08523541 -55.51000702 29.10405749 -48.83133888 29.07515812 C-45.39848685 29.06180913 -41.96732962 29.06468035 -38.53466797 29.10620117 C-34.57718888 29.15332745 -30.62173974 29.12706641 -26.6640625 29.09765625 C-25.44699615 29.12223404 -24.22992981 29.14681183 -22.97598267 29.1721344 C-16.10462071 29.05761071 -12.50027187 28.18934607 -7.39599609 23.43139648 C-6.63757416 22.60598862 -5.87915222 21.78058075 -5.0977478 20.93016052 C-3 19 -3 19 1 19 C0.67 12.73 0.34 6.46 0 0 Z " fill="#D0D3D8" transform="translate(288,210)"/>
<path d="M0 0 C0.66 0.33 1.32 0.66 2 1 C1.28714844 1.66644531 0.57429688 2.33289063 -0.16015625 3.01953125 C-7.07121674 9.62018584 -12.68383989 16.36767979 -17 25 C-16.21625 24.525625 -15.4325 24.05125 -14.625 23.5625 C-13.11051322 22.66101977 -11.5764103 21.78820515 -10 21 C-11.47915917 24.19264059 -13.26764385 26.93405684 -15.375 29.75 C-15.96023437 30.54921875 -16.54546875 31.3484375 -17.1484375 32.171875 C-19 34 -19 34 -23 34 C-19.10367094 20.01905454 -10.12474011 10.03332034 0 0 Z " fill="#C3C7C9" transform="translate(219,196)"/>
<path d="M0 0 C0.42067195 3.93795686 0.24290419 5.63082419 -1.96875 8.9921875 C-2.8040625 9.94351563 -3.639375 10.89484375 -4.5 11.875 C-5.75296875 13.32519531 -5.75296875 13.32519531 -7.03125 14.8046875 C-7.6809375 15.52914063 -8.330625 16.25359375 -9 17 C-10.65 16.67 -12.3 16.34 -14 16 C-12.212463 12.03556151 -4.6601554 0 0 0 Z " fill="#2C353C" transform="translate(295,241)"/>
<path d="M0 0 C0 4.91886814 -3.68826689 7.6051539 -7 11 C-9.27699716 13.08798002 -11.60502418 15.0449177 -14 17 C-14.66 16.67 -15.32 16.34 -16 16 C-15.34 15.34 -14.68 14.68 -14 14 C-13.45682905 11.44795872 -13.11095659 8.89721422 -12.7578125 6.3125 C-12 4 -12 4 -9.9296875 2.6875 C-9.29289062 2.460625 -8.65609375 2.23375 -8 2 C-8.66 3.65 -9.32 5.3 -10 7 C-7.29068581 6.84518205 -5.53415961 6.51827919 -3.5546875 4.59765625 C-2.32320358 3.10228292 -1.1570163 1.5537076 0 0 Z " fill="#8C9195" transform="translate(292,250)"/>
<path d="M0 0 C3.58394851 3.58394851 5.81495115 8.4478149 8 13 C7.01 13 6.02 13 5 13 C4.67 13.66 4.34 14.32 4 15 C2.68 14.67 1.36 14.34 0 14 C-0.33 14.66 -0.66 15.32 -1 16 C-2.10699272 12.01482622 -1.79843267 10.59686533 0 7 C0.0777346 4.66796188 0.08967728 2.33160941 0 0 Z " fill="#626A71" transform="translate(218,242)"/>
<path d="M0 0 C9.48790324 0.6187763 16.88828367 5.06065327 23.30078125 11.94140625 C25.70821132 14.85799395 27.44142642 17.54403249 29 21 C28.67 21.99 28.34 22.98 28 24 C25.48343707 21.81897879 24.13255104 20.53020417 23.3125 17.25 C20.76929421 10.95253805 15.56263789 7.19225866 9.515625 4.37890625 C6.36541685 3.16490682 3.21363667 2.03313204 0 1 C0 0.67 0 0.34 0 0 Z " fill="#D8DBDE" transform="translate(259,186)"/>
<path d="M0 0 C0.66 0.33 1.32 0.66 2 1 C1.67 1.99 1.34 2.98 1 4 C1 4.99 1 5.98 1 7 C0.34 7 -0.32 7 -1 7 C-1.33 7.66 -1.66 8.32 -2 9 C-2 8.34 -2 7.68 -2 7 C-2.763125 7.20625 -3.52625 7.4125 -4.3125 7.625 C-7 8 -7 8 -10 6 C-2.83146067 1.11235955 -2.83146067 1.11235955 0 0 Z " fill="#687074" transform="translate(276,255)"/>
<path d="M0 0 C0.33 0 0.66 0 1 0 C1 2.97 1 5.94 1 9 C1.99 9.33 2.98 9.66 4 10 C1.66666667 12.33333333 -0.66666667 14.66666667 -3 17 C-3.99 16.67 -4.98 16.34 -6 16 C-5.67 15.01 -5.34 14.02 -5 13 C-4.34 13 -3.68 13 -3 13 C-2.67 11.68 -2.34 10.36 -2 9 C-1.34 9 -0.68 9 0 9 C0 6.03 0 3.06 0 0 Z " fill="#343C42" transform="translate(279,221)"/>
<path d="M0 0 C1.32 0.66 2.64 1.32 4 2 C4 3.32 4 4.64 4 6 C1.15389899 8.13457576 -1.508067 9.35334574 -5 10 C-3.84414715 6.08788267 -2.64465038 3.1254959 0 0 Z " fill="#4A5156" transform="translate(207,211)"/>
<path d="M0 0 C0.66 0.33 1.32 0.66 2 1 C-2.75 5 -2.75 5 -5 5 C-5 5.66 -5 6.32 -5 7 C-5.66 7 -6.32 7 -7 7 C-7 7.66 -7 8.32 -7 9 C-7.66 9 -8.32 9 -9 9 C-10.625 6.5 -10.625 6.5 -12 4 C-11.34 3.01 -10.68 2.02 -10 1 C-8.906875 1.20625 -7.81375 1.4125 -6.6875 1.625 C-2.9161599 2.40346525 -2.9161599 2.40346525 0 0 Z " fill="#72787E" transform="translate(220,206)"/>
<path d="M0 0 C2.84687774 -0.23723981 4.64597372 -0.16717908 7.25 1.0625 C9.77682047 3.86005124 9.68616691 6.29676955 10 10 C10.3274322 12.00097458 10.65876419 14.00133314 11 16 C8.3144406 13.3144406 7.93950026 10.62378672 7 7 C6.34 7 5.68 7 5 7 C3.7109375 5.46875 3.7109375 5.46875 2.375 3.5 C1.70597656 2.52546875 1.70597656 2.52546875 1.0234375 1.53125 C0.68570312 1.0259375 0.34796875 0.520625 0 0 Z " fill="#969A9F" transform="translate(267,202)"/>
<path d="M0 0 C0.33 0 0.66 0 1 0 C1.32728047 3.60008519 1.40422813 5.41611492 -0.6875 8.4375 C-3 10 -3 10 -5.75 9.75 C-6.4925 9.5025 -7.235 9.255 -8 9 C-7.04270084 7.87411986 -6.08412105 6.7493285 -5.125 5.625 C-4.59132813 4.99851563 -4.05765625 4.37203125 -3.5078125 3.7265625 C-2.38567993 2.44163349 -1.20628025 1.20628025 0 0 Z " fill="#343A40" transform="translate(294,241)"/>
<path d="M0 0 C0 0.99 0 1.98 0 3 C-5.45769231 6.10096154 -5.45769231 6.10096154 -8.203125 5.58984375 C-8.79609375 5.39519531 -9.3890625 5.20054687 -10 5 C-8.90241493 4.15801693 -7.79664683 3.32669329 -6.6875 2.5 C-6.07261719 2.0359375 -5.45773438 1.571875 -4.82421875 1.09375 C-3 0 -3 0 0 0 Z " fill="#999EA1" transform="translate(231,190)"/>
<path d="M0 0 C0.99 0 1.98 0 3 0 C2.67 1.65 2.34 3.3 2 5 C1.01 5 0.02 5 -1 5 C-3.67398476 6.93897879 -3.67398476 6.93897879 -6 9 C-4.4705003 5.55862568 -2.54630448 2.7777867 0 0 Z " fill="#E1E2E4" transform="translate(300,231)"/>
<path d="M0 0 C0.99 0.33 1.98 0.66 3 1 C4.1875 4.0625 4.1875 4.0625 5 7 C4.01 7 3.02 7 2 7 C-0.1875 4 -0.1875 4 -2 1 C-1.34 0.67 -0.68 0.34 0 0 Z " fill="#303A42" transform="translate(213,253)"/>
<path d="M0 0 C2.97 0.495 2.97 0.495 6 1 C6 2.32 6 3.64 6 5 C4.02 4.34 2.04 3.68 0 3 C0 2.01 0 1.02 0 0 Z " fill="#878C90" transform="translate(222,266)"/>
<path d="M0 0 C0.66 0.33 1.32 0.66 2 1 C1.25 2.9375 1.25 2.9375 0 5 C-2.125 5.75 -2.125 5.75 -4 6 C-3.67 5.01 -3.34 4.02 -3 3 C-2.34 3 -1.68 3 -1 3 C-0.67 2.01 -0.34 1.02 0 0 Z " fill="#31393E" transform="translate(206,215)"/>
<path d="M0 0 C3 1 3 1 4.25 2.875 C5 5 5 5 4 8 C2 6.25 2 6.25 0 4 C0 2.68 0 1.36 0 0 Z " fill="#A0A3A6" transform="translate(283,202)"/>
</svg>
